<?xml version="1.0" standalone="no"?>
<!DOCTYPE svg PUBLIC "-//W3C//DTD SVG 20010904//EN"
 "http://www.w3.org/TR/2001/REC-SVG-20010904/DTD/svg10.dtd">
<svg version="1.0" xmlns="http://www.w3.org/2000/svg"
 width="512.000000pt" height="512.000000pt" viewBox="0 0 512.000000 512.000000"
 preserveAspectRatio="xMidYMid meet">
<metadata>
Created by potrace 1.11, written by Peter Selinger 2001-2013
</metadata>
<g transform="translate(0.000000,512.000000) scale(0.100000,-0.100000)"
fill="#000000" stroke="none">
<path d="M2370 5004 c-198 -18 -432 -68 -613 -130 -231 -80 -536 -251 -742
-417 -114 -92 -317 -304 -409 -427 -322 -432 -486 -928 -486 -1470 0 -652 238
-1239 690 -1704 211 -217 415 -365 685 -497 240 -117 457 -185 725 -226 161
-24 529 -24 690 0 1067 164 1882 954 2070 2006 162 911 -214 1843 -968 2399
-312 230 -694 387 -1092 447 -101 15 -455 27 -550 19z m722 -555 c103 -110
164 -289 155 -454 -9 -159 -62 -283 -176 -410 -30 -33 -68 -89 -85 -125 -26
-55 -31 -79 -34 -160 -6 -137 24 -219 115 -323 39 -44 43 -82 12 -121 -48 -62
-107 -52 -177 30 -87 102 -142 253 -142 394 0 156 55 293 171 430 39 47 86
114 103 150 29 61 31 72 31 180 0 108 -2 119 -31 180 -17 36 -49 87 -72 113
-52 60 -55 95 -13 138 47 46 84 40 143 -22z m-670 -300 c50 -27 118 -131 148
-228 13 -40 20 -91 20 -140 0 -132 -42 -238 -136 -343 -81 -89 -99 -133 -99
-238 0 -97 18 -146 78 -218 56 -67 48 -130 -19 -158 -51 -21 -92 0 -148 76
-65 88 -88 156 -94 272 -7 155 35 262 148 382 70 74 94 133 94 226 -1 87 -21
141 -78 209 -45 53 -52 80 -32 119 26 50 72 66 118 41z m1227 -41 c109 -113
156 -296 116 -453 -23 -87 -57 -152 -120 -223 -87 -99 -100 -131 -100 -237 0
-100 13 -135 79 -214 53 -63 45 -125 -20 -156 -29 -14 -37 -14 -67 -1 -93 39
-177 214 -177 371 0 132 39 234 135 351 77 93 97 136 103 215 6 82 -15 150
-62 205 -64 76 -70 106 -30 153 20 25 34 31 64 31 31 0 45 -7 79 -42z m625
-1538 c14 -5 33 -21 43 -37 17 -25 18 -64 21 -498 2 -316 -1 -492 -8 -537 -16
-94 -69 -198 -136 -268 -73 -76 -135 -116 -229 -146 l-76 -24 -910 0 c-1005 0
-970 -2 -1094 63 -81 43 -174 138 -214 218 -57 117 -61 144 -61 484 l0 309
-67 68 -67 68 -488 0 -487 0 -28 24 c-40 35 -40 107 0 142 l28 24 526 0 c507
0 526 -1 553 -20 l27 -20 5 50 c5 52 26 86 63 101 29 11 2568 11 2599 -1z"/>
<path d="M1802 1948 l3 -433 28 -61 c35 -76 94 -135 172 -171 l60 -28 910 0
910 0 60 28 c76 36 147 110 175 183 19 52 20 76 20 484 l0 430 -1170 0 -1171
0 3 -432z"/>
</g>
</svg>
